<svg xmlns="http://www.w3.org/2000/svg" version="1.1" xmlns:xlink="http://www.w3.org/1999/xlink" xmlns:svgjs="http://svgjs.dev/svgjs" width="1440" height="592" preserveAspectRatio="none" viewBox="0 0 1440 592"><g mask="url(&quot;#SvgjsMask1119&quot;)" fill="none"><rect width="1440" height="592" x="0" y="0" fill="#0e2a47"></rect><path d="M747 345L746 -91" stroke-width="6" stroke="url(&quot;#SvgjsLinearGradient1120&quot;)" stroke-linecap="round" class="Up"></path><path d="M177 224L176 496" stroke-width="6" stroke="url(&quot;#SvgjsLinearGradient1121&quot;)" stroke-linecap="round" class="Down"></path><path d="M1088 80L1087 455" stroke-width="6" stroke="url(&quot;#SvgjsLinearGradient1120&quot;)" stroke-linecap="round" class="Up"></path><path d="M883 316L882 734" stroke-width="10" stroke="url(&quot;#SvgjsLinearGradient1121&quot;)" stroke-linecap="round" class="Down"></path><path d="M203 44L202 404" stroke-width="6" stroke="url(&quot;#SvgjsLinearGradient1120&quot;)" stroke-linecap="round" class="Up"></path><path d="M1385 457L1384 219" stroke-width="8" stroke="url(&quot;#SvgjsLinearGradient1120&quot;)" stroke-linecap="round" class="Up"></path><path d="M563 117L562 475" stroke-width="6" stroke="url(&quot;#SvgjsLinearGradient1121&quot;)" stroke-linecap="round" class="Down"></path><path d="M1137 19L1136 184" stroke-width="6" stroke="url(&quot;#SvgjsLinearGradient1121&quot;)" stroke-linecap="round" class="Down"></path><path d="M99 152L98 -229" stroke-width="10" stroke="url(&quot;#SvgjsLinearGradient1120&quot;)" stroke-linecap="round" class="Up"></path><path d="M1276 416L1275 100" stroke-width="8" stroke="url(&quot;#SvgjsLinearGradient1121&quot;)" stroke-linecap="round" class="Down"></path><path d="M100 61L99 -379" stroke-width="6" stroke="url(&quot;#SvgjsLinearGradient1121&quot;)" stroke-linecap="round" class="Down"></path><path d="M292 383L291 746" stroke-width="10" stroke="url(&quot;#SvgjsLinearGradient1120&quot;)" stroke-linecap="round" class="Up"></path><path d="M966 408L965 -23" stroke-width="6" stroke="url(&quot;#SvgjsLinearGradient1121&quot;)" stroke-linecap="round" class="Down"></path><path d="M855 128L854 -186" stroke-width="10" stroke="url(&quot;#SvgjsLinearGradient1121&quot;)" stroke-linecap="round" class="Down"></path><path d="M174 506L173 127" stroke-width="8" stroke="url(&quot;#SvgjsLinearGradient1121&quot;)" stroke-linecap="round" class="Down"></path><path d="M710 177L709 29" stroke-width="10" stroke="url(&quot;#SvgjsLinearGradient1121&quot;)" stroke-linecap="round" class="Down"></path><path d="M1422 449L1421 157" stroke-width="10" stroke="url(&quot;#SvgjsLinearGradient1121&quot;)" stroke-linecap="round" class="Down"></path><path d="M952 4L951 -227" stroke-width="6" stroke="url(&quot;#SvgjsLinearGradient1121&quot;)" stroke-linecap="round" class="Down"></path><path d="M1013 435L1012 53" stroke-width="8" stroke="url(&quot;#SvgjsLinearGradient1121&quot;)" stroke-linecap="round" class="Down"></path><path d="M1113 227L1112 -158" stroke-width="8" stroke="url(&quot;#SvgjsLinearGradient1121&quot;)" stroke-linecap="round" class="Down"></path><path d="M1297 353L1296 635" stroke-width="8" stroke="url(&quot;#SvgjsLinearGradient1120&quot;)" stroke-linecap="round" class="Up"></path><path d="M920 331L919 180" stroke-width="10" stroke="url(&quot;#SvgjsLinearGradient1120&quot;)" stroke-linecap="round" class="Up"></path><path d="M816 157L815 560" stroke-width="10" stroke="url(&quot;#SvgjsLinearGradient1121&quot;)" stroke-linecap="round" class="Down"></path><path d="M1040 491L1039 869" stroke-width="10" stroke="url(&quot;#SvgjsLinearGradient1120&quot;)" stroke-linecap="round" class="Up"></path><path d="M612 350L611 640" stroke-width="6" stroke="url(&quot;#SvgjsLinearGradient1121&quot;)" stroke-linecap="round" class="Down"></path><path d="M872 530L871 794" stroke-width="8" stroke="url(&quot;#SvgjsLinearGradient1120&quot;)" stroke-linecap="round" class="Up"></path><path d="M1149 139L1148 497" stroke-width="6" stroke="url(&quot;#SvgjsLinearGradient1120&quot;)" stroke-linecap="round" class="Up"></path><path d="M927 19L926 405" stroke-width="6" stroke="url(&quot;#SvgjsLinearGradient1121&quot;)" stroke-linecap="round" class="Down"></path><path d="M321 295L320 -108" stroke-width="6" stroke="url(&quot;#SvgjsLinearGradient1121&quot;)" stroke-linecap="round" class="Down"></path><path d="M560 261L559 561" stroke-width="10" stroke="url(&quot;#SvgjsLinearGradient1121&quot;)" stroke-linecap="round" class="Down"></path><path d="M387 535L386 973" stroke-width="10" stroke="url(&quot;#SvgjsLinearGradient1121&quot;)" stroke-linecap="round" class="Down"></path><path d="M424 554L423 250" stroke-width="10" stroke="url(&quot;#SvgjsLinearGradient1121&quot;)" stroke-linecap="round" class="Down"></path><path d="M878 82L877 -93" stroke-width="8" stroke="url(&quot;#SvgjsLinearGradient1121&quot;)" stroke-linecap="round" class="Down"></path><path d="M301 177L300 467" stroke-width="6" stroke="url(&quot;#SvgjsLinearGradient1121&quot;)" stroke-linecap="round" class="Down"></path><path d="M1378 278L1377 55" stroke-width="10" stroke="url(&quot;#SvgjsLinearGradient1121&quot;)" stroke-linecap="round" class="Down"></path><path d="M568 438L567 863" stroke-width="8" stroke="url(&quot;#SvgjsLinearGradient1120&quot;)" stroke-linecap="round" class="Up"></path></g><defs><mask id="SvgjsMask1119"><rect width="1440" height="592" fill="#ffffff"></rect></mask><linearGradient x1="0%" y1="100%" x2="0%" y2="0%" id="SvgjsLinearGradient1120"><stop stop-color="rgba(20, 209, 131, 0)" offset="0"></stop><stop stop-color="rgba(20, 209, 131, 1)" offset="1"></stop></linearGradient><linearGradient x1="0%" y1="0%" x2="0%" y2="100%" id="SvgjsLinearGradient1121"><stop stop-color="rgba(20, 209, 131, 0)" offset="0"></stop><stop stop-color="rgba(20, 209, 131, 1)" offset="1"></stop></linearGradient></defs></svg>